<?xml version="1.0" encoding="iso-8859-1"?>
<!-- Generator: Adobe Illustrator 18.1.1, SVG Export Plug-In . SVG Version: 6.00 Build 0)  -->
<svg version="1.1" id="Capa_1" xmlns="http://www.w3.org/2000/svg" xmlns:xlink="http://www.w3.org/1999/xlink" x="0px" y="0px"
	 viewBox="0 0 45.03 45.03" style="enable-background:new 0 0 45.03 45.03;" xml:space="preserve">
<g>
	<path style="fill:#030104;" d="M44.445,9.025c-0.523-0.681-1.372-1.088-2.268-1.088c-0.623,0-1.229,0.201-1.706,0.567l-8.39,6.445
		V9.36c0-1.011-0.822-1.833-1.834-1.833H1.834C0.822,7.527,0,8.349,0,9.36v26.31c0,1.011,0.822,1.833,1.834,1.833H30.25
		c1.01,0,1.832-0.822,1.832-1.833V22.098l11.844-9.099C45.164,12.048,45.396,10.265,44.445,9.025z M1.889,35.644L1.833,9.391h28.359
		v7.012l-9.411,7.23l-6.143-5.735c-1.064-0.996-3.013-0.925-4.006,0.138c-0.515,0.554-0.785,1.274-0.761,2.03
		c0.026,0.758,0.346,1.458,0.899,1.975l7.899,7.372c0.527,0.492,1.214,0.763,1.935,0.763c0.628,0,1.225-0.202,1.727-0.587
		l7.868-6.045l0.051,12.1H1.889z M42.774,11.5L21.182,28.091c-0.343,0.262-0.91,0.23-1.223-0.059l-7.898-7.373
		c-0.186-0.173-0.291-0.406-0.299-0.66c-0.01-0.25,0.08-0.49,0.252-0.676c0.181-0.193,0.427-0.301,0.692-0.301
		c0.239,0,0.469,0.091,0.645,0.255l7.313,6.826l20.955-16.101c0.387-0.293,1.035-0.205,1.327,0.174
		c0.153,0.199,0.22,0.447,0.187,0.698C43.101,11.125,42.973,11.347,42.774,11.5z"/>
</g>
<g>
</g>
<g>
</g>
<g>
</g>
<g>
</g>
<g>
</g>
<g>
</g>
<g>
</g>
<g>
</g>
<g>
</g>
<g>
</g>
<g>
</g>
<g>
</g>
<g>
</g>
<g>
</g>
<g>
</g>
</svg>
